<?xml version="1.0" encoding="UTF-8" standalone="no"?>
<!-- Created with Inkscape (http://www.inkscape.org/) -->

<svg
   version="1.1"
   id="svg1"
   width="887.35138"
   height="576"
   viewBox="0 0 887.35138 576"
   sodipodi:docname="medicamentos_missing_filled_editado.svg"
   inkscape:version="1.3.2 (091e20e, 2023-11-25, custom)"
   xmlns:inkscape="http://www.inkscape.org/namespaces/inkscape"
   xmlns:sodipodi="http://sodipodi.sourceforge.net/DTD/sodipodi-0.dtd"
   xmlns="http://www.w3.org/2000/svg"
   xmlns:svg="http://www.w3.org/2000/svg">
  <defs
     id="defs1">
    <clipPath
       clipPathUnits="userSpaceOnUse"
       id="clipPath4">
      <path
         d="M 70.22,260.03 H 565.2 V 406.56 H 70.22 Z"
         id="path4" />
    </clipPath>
    <clipPath
       clipPathUnits="userSpaceOnUse"
       id="clipPath6">
      <path
         d="M 70.22,260.03 H 565.2 V 406.56 H 70.22 Z"
         id="path6" />
    </clipPath>
    <clipPath
       clipPathUnits="userSpaceOnUse"
       id="clipPath8">
      <path
         d="M 70.22,260.03 H 565.2 V 406.56 H 70.22 Z"
         id="path8" />
    </clipPath>
    <clipPath
       clipPathUnits="userSpaceOnUse"
       id="clipPath10">
      <path
         d="M 70.22,260.03 H 565.2 V 406.56 H 70.22 Z"
         id="path10" />
    </clipPath>
    <clipPath
       clipPathUnits="userSpaceOnUse"
       id="clipPath12">
      <path
         d="M 70.22,260.03 H 565.2 V 406.56 H 70.22 Z"
         id="path12" />
    </clipPath>
    <clipPath
       clipPathUnits="userSpaceOnUse"
       id="clipPath14">
      <path
         d="M 70.22,260.03 H 565.2 V 406.56 H 70.22 Z"
         id="path14" />
    </clipPath>
    <clipPath
       clipPathUnits="userSpaceOnUse"
       id="clipPath16">
      <path
         d="M 70.22,260.03 H 565.2 V 406.56 H 70.22 Z"
         id="path16" />
    </clipPath>
    <clipPath
       clipPathUnits="userSpaceOnUse"
       id="clipPath18">
      <path
         d="M 70.22,260.03 H 565.2 V 406.56 H 70.22 Z"
         id="path18" />
    </clipPath>
    <clipPath
       clipPathUnits="userSpaceOnUse"
       id="clipPath20">
      <path
         d="M 70.22,260.03 H 565.2 V 406.56 H 70.22 Z"
         id="path20" />
    </clipPath>
    <clipPath
       clipPathUnits="userSpaceOnUse"
       id="clipPath22">
      <path
         d="M 70.22,260.03 H 565.2 V 406.56 H 70.22 Z"
         id="path22" />
    </clipPath>
    <clipPath
       clipPathUnits="userSpaceOnUse"
       id="clipPath24">
      <path
         d="M 70.22,260.03 H 565.2 V 406.56 H 70.22 Z"
         id="path24" />
    </clipPath>
    <clipPath
       clipPathUnits="userSpaceOnUse"
       id="clipPath26">
      <path
         d="M 70.22,260.03 H 565.2 V 406.56 H 70.22 Z"
         id="path26" />
    </clipPath>
    <clipPath
       clipPathUnits="userSpaceOnUse"
       id="clipPath28">
      <path
         d="M 70.22,260.03 H 565.2 V 406.56 H 70.22 Z"
         id="path28" />
    </clipPath>
    <clipPath
       clipPathUnits="userSpaceOnUse"
       id="clipPath30">
      <path
         d="M 70.22,260.03 H 565.2 V 406.56 H 70.22 Z"
         id="path30" />
    </clipPath>
    <clipPath
       clipPathUnits="userSpaceOnUse"
       id="clipPath32">
      <path
         d="M 70.22,260.03 H 565.2 V 406.56 H 70.22 Z"
         id="path32" />
    </clipPath>
    <clipPath
       clipPathUnits="userSpaceOnUse"
       id="clipPath34">
      <path
         d="M 70.22,260.03 H 565.2 V 406.56 H 70.22 Z"
         id="path34" />
    </clipPath>
    <clipPath
       clipPathUnits="userSpaceOnUse"
       id="clipPath36">
      <path
         d="M 70.22,260.03 H 565.2 V 406.56 H 70.22 Z"
         id="path36" />
    </clipPath>
    <clipPath
       clipPathUnits="userSpaceOnUse"
       id="clipPath38">
      <path
         d="M 70.22,260.03 H 565.2 V 406.56 H 70.22 Z"
         id="path38" />
    </clipPath>
    <clipPath
       clipPathUnits="userSpaceOnUse"
       id="clipPath40">
      <path
         d="M 70.22,260.03 H 565.2 V 406.56 H 70.22 Z"
         id="path40" />
    </clipPath>
    <clipPath
       clipPathUnits="userSpaceOnUse"
       id="clipPath42">
      <path
         d="M 70.22,260.03 H 565.2 V 406.56 H 70.22 Z"
         id="path42" />
    </clipPath>
    <clipPath
       clipPathUnits="userSpaceOnUse"
       id="clipPath44">
      <path
         d="M 70.22,260.03 H 565.2 V 406.56 H 70.22 Z"
         id="path44" />
    </clipPath>
    <clipPath
       clipPathUnits="userSpaceOnUse"
       id="clipPath46">
      <path
         d="M 70.22,260.03 H 565.2 V 406.56 H 70.22 Z"
         id="path46" />
    </clipPath>
    <clipPath
       clipPathUnits="userSpaceOnUse"
       id="clipPath48">
      <path
         d="M 70.22,260.03 H 565.2 V 406.56 H 70.22 Z"
         id="path48" />
    </clipPath>
    <clipPath
       clipPathUnits="userSpaceOnUse"
       id="clipPath50">
      <path
         d="M 70.22,260.03 H 565.2 V 406.56 H 70.22 Z"
         id="path50" />
    </clipPath>
    <clipPath
       clipPathUnits="userSpaceOnUse"
       id="clipPath52">
      <path
         d="M 70.22,260.03 H 565.2 V 406.56 H 70.22 Z"
         id="path52" />
    </clipPath>
    <clipPath
       clipPathUnits="userSpaceOnUse"
       id="clipPath54">
      <path
         d="M 70.22,260.03 H 565.2 V 406.56 H 70.22 Z"
         id="path54" />
    </clipPath>
    <clipPath
       clipPathUnits="userSpaceOnUse"
       id="clipPath56">
      <path
         d="M 70.22,260.03 H 565.2 V 406.56 H 70.22 Z"
         id="path56" />
    </clipPath>
    <clipPath
       clipPathUnits="userSpaceOnUse"
       id="clipPath58">
      <path
         d="M 70.22,260.03 H 565.2 V 406.56 H 70.22 Z"
         id="path58" />
    </clipPath>
    <clipPath
       clipPathUnits="userSpaceOnUse"
       id="clipPath60">
      <path
         d="M 70.22,260.03 H 565.2 V 406.56 H 70.22 Z"
         id="path60" />
    </clipPath>
    <clipPath
       clipPathUnits="userSpaceOnUse"
       id="clipPath62">
      <path
         d="M 70.22,260.03 H 565.2 V 406.56 H 70.22 Z"
         id="path62" />
    </clipPath>
  </defs>
  <sodipodi:namedview
     id="namedview1"
     pagecolor="#ffffff"
     bordercolor="#000000"
     borderopacity="0.25"
     inkscape:showpageshadow="2"
     inkscape:pageopacity="0.0"
     inkscape:pagecheckerboard="0"
     inkscape:deskcolor="#d1d1d1"
     inkscape:zoom="1.3489583"
     inkscape:cx="384"
     inkscape:cy="287.25869"
     inkscape:window-width="1920"
     inkscape:window-height="991"
     inkscape:window-x="-9"
     inkscape:window-y="-9"
     inkscape:window-maximized="1"
     inkscape:current-layer="g1">
    <inkscape:page
       x="0"
       y="0"
       inkscape:label="1"
       id="page1"
       width="887.35138"
       height="576"
       margin="0 0 0 0"
       bleed="0" />
  </sodipodi:namedview>
  <g
     id="g1"
     inkscape:groupmode="layer"
     inkscape:label="1">
    <path
       id="path1"
       d="M 0,0 H 576 V 432 H 0 Z"
       style="fill:#ffffff;fill-opacity:1;fill-rule:nonzero;stroke:none"
       transform="matrix(1.3333333,0,0,-1.3333333,0,576)" />
    <path
       id="path2"
       d="M 70.22,260.03 H 565.2 V 406.56 H 70.22 Z"
       style="fill:#ffffff;fill-opacity:1;fill-rule:nonzero;stroke:none"
       transform="matrix(1.3333333,0,0,-1.3333333,0,576)" />
    <path
       id="path3"
       d="m 78.361118,260.03 h 11.397566 v 0 z"
       style="fill:#1f77b4;fill-opacity:1;fill-rule:nonzero;stroke:none"
       transform="matrix(1.3333333,0,0,-1.3333333,0,576)"
       clip-path="url(#clipPath4)" />
    <path
       id="path5"
       d="m 110.92559,260.03 h 11.39757 v 0.27586 h -11.39757 z"
       style="fill:#1f77b4;fill-opacity:1;fill-rule:nonzero;stroke:none"
       transform="matrix(1.3333333,0,0,-1.3333333,0,576)"
       clip-path="url(#clipPath6)" />
    <path
       id="path7"
       d="m 143.49007,260.03 h 11.39756 v 1.36778 h -11.39756 z"
       style="fill:#1f77b4;fill-opacity:1;fill-rule:nonzero;stroke:none"
       transform="matrix(1.3333333,0,0,-1.3333333,0,576)"
       clip-path="url(#clipPath8)" />
    <path
       id="path9"
       d="m 176.05454,260.03 h 11.39757 v 1.49931 h -11.39757 z"
       style="fill:#1f77b4;fill-opacity:1;fill-rule:nonzero;stroke:none"
       transform="matrix(1.3333333,0,0,-1.3333333,0,576)"
       clip-path="url(#clipPath10)" />
    <path
       id="path11"
       d="m 208.61901,260.03 h 11.39757 v 1.36778 h -11.39757 z"
       style="fill:#1f77b4;fill-opacity:1;fill-rule:nonzero;stroke:none"
       transform="matrix(1.3333333,0,0,-1.3333333,0,576)"
       clip-path="url(#clipPath12)" />
    <path
       id="path13"
       d="m 241.18349,260.03 h 11.39756 v 115.98579 h -11.39756 z"
       style="fill:#1f77b4;fill-opacity:1;fill-rule:nonzero;stroke:none"
       transform="matrix(1.3333333,0,0,-1.3333333,0,576)"
       clip-path="url(#clipPath14)" />
    <path
       id="path15"
       d="m 273.74796,260.03 h 11.39757 v 68.0103 h -11.39757 z"
       style="fill:#1f77b4;fill-opacity:1;fill-rule:nonzero;stroke:none"
       transform="matrix(1.3333333,0,0,-1.3333333,0,576)"
       clip-path="url(#clipPath16)" />
    <path
       id="path17"
       d="M 306.31243,260.03 H 317.71 v 85.34377 h -11.39757 z"
       style="fill:#1f77b4;fill-opacity:1;fill-rule:nonzero;stroke:none"
       transform="matrix(1.3333333,0,0,-1.3333333,0,576)"
       clip-path="url(#clipPath18)" />
    <path
       id="path19"
       d="m 338.87691,260.03 h 11.39756 v 79.92928 h -11.39756 z"
       style="fill:#1f77b4;fill-opacity:1;fill-rule:nonzero;stroke:none"
       transform="matrix(1.3333333,0,0,-1.3333333,0,576)"
       clip-path="url(#clipPath20)" />
    <path
       id="path21"
       d="m 371.44138,260.03 h 11.39757 v 86.4037 h -11.39757 z"
       style="fill:#1f77b4;fill-opacity:1;fill-rule:nonzero;stroke:none"
       transform="matrix(1.3333333,0,0,-1.3333333,0,576)"
       clip-path="url(#clipPath22)" />
    <path
       id="path23"
       d="m 404.00585,260.03 h 11.39757 v 1.14665 h -11.39757 z"
       style="fill:#1f77b4;fill-opacity:1;fill-rule:nonzero;stroke:none"
       transform="matrix(1.3333333,0,0,-1.3333333,0,576)"
       clip-path="url(#clipPath24)" />
    <path
       id="path25"
       d="m 436.57033,260.03 h 11.39756 v 72.03428 h -11.39756 z"
       style="fill:#1f77b4;fill-opacity:1;fill-rule:nonzero;stroke:none"
       transform="matrix(1.3333333,0,0,-1.3333333,0,576)"
       clip-path="url(#clipPath26)" />
    <path
       id="path27"
       d="m 469.1348,260.03 h 11.39757 V 380.05993 H 469.1348 Z"
       style="fill:#1f77b4;fill-opacity:1;fill-rule:nonzero;stroke:none"
       transform="matrix(1.3333333,0,0,-1.3333333,0,576)"
       clip-path="url(#clipPath28)" />
    <path
       id="path29"
       d="m 501.69928,260.03 h 11.39756 v 103.3141 h -11.39756 z"
       style="fill:#1f77b4;fill-opacity:1;fill-rule:nonzero;stroke:none"
       transform="matrix(1.3333333,0,0,-1.3333333,0,576)"
       clip-path="url(#clipPath30)" />
    <path
       id="path31"
       d="m 534.26375,260.03 h 11.39757 v 75.21404 h -11.39757 z"
       style="fill:#1f77b4;fill-opacity:1;fill-rule:nonzero;stroke:none"
       transform="matrix(1.3333333,0,0,-1.3333333,0,576)"
       clip-path="url(#clipPath32)" />
    <path
       id="path33"
       d="M 89.758684,260.03 H 101.15625 V 399.58238 H 89.758684 Z"
       style="fill:#ff7f0e;fill-opacity:1;fill-rule:nonzero;stroke:none"
       transform="matrix(1.3333333,0,0,-1.3333333,0,576)"
       clip-path="url(#clipPath34)" />
    <path
       id="path35"
       d="m 122.32316,260.03 h 11.39756 v 139.27652 h -11.39756 z"
       style="fill:#ff7f0e;fill-opacity:1;fill-rule:nonzero;stroke:none"
       transform="matrix(1.3333333,0,0,-1.3333333,0,576)"
       clip-path="url(#clipPath36)" />
    <path
       id="path37"
       d="M 154.88763,260.03 H 166.2852 V 398.2146 H 154.88763 Z"
       style="fill:#ff7f0e;fill-opacity:1;fill-rule:nonzero;stroke:none"
       transform="matrix(1.3333333,0,0,-1.3333333,0,576)"
       clip-path="url(#clipPath38)" />
    <path
       id="path39"
       d="m 187.45211,260.03 h 11.39756 v 138.05307 h -11.39756 z"
       style="fill:#ff7f0e;fill-opacity:1;fill-rule:nonzero;stroke:none"
       transform="matrix(1.3333333,0,0,-1.3333333,0,576)"
       clip-path="url(#clipPath40)" />
    <path
       id="path41"
       d="m 220.01658,260.03 h 11.39756 v 138.1846 h -11.39756 z"
       style="fill:#ff7f0e;fill-opacity:1;fill-rule:nonzero;stroke:none"
       transform="matrix(1.3333333,0,0,-1.3333333,0,576)"
       clip-path="url(#clipPath42)" />
    <path
       id="path43"
       d="m 252.58105,260.03 h 11.39757 v 23.56659 h -11.39757 z"
       style="fill:#ff7f0e;fill-opacity:1;fill-rule:nonzero;stroke:none"
       transform="matrix(1.3333333,0,0,-1.3333333,0,576)"
       clip-path="url(#clipPath44)" />
    <path
       id="path45"
       d="m 285.14553,260.03 h 11.39756 v 71.54209 h -11.39756 z"
       style="fill:#ff7f0e;fill-opacity:1;fill-rule:nonzero;stroke:none"
       transform="matrix(1.3333333,0,0,-1.3333333,0,576)"
       clip-path="url(#clipPath46)" />
    <path
       id="path47"
       d="m 317.71,260.03 h 11.39757 v 54.20861 H 317.71 Z"
       style="fill:#ff7f0e;fill-opacity:1;fill-rule:nonzero;stroke:none"
       transform="matrix(1.3333333,0,0,-1.3333333,0,576)"
       clip-path="url(#clipPath48)" />
    <path
       id="path49"
       d="m 350.27447,260.03 h 11.39757 v 59.6231 h -11.39757 z"
       style="fill:#ff7f0e;fill-opacity:1;fill-rule:nonzero;stroke:none"
       transform="matrix(1.3333333,0,0,-1.3333333,0,576)"
       clip-path="url(#clipPath50)" />
    <path
       id="path51"
       d="m 382.83895,260.03 h 11.39756 v 53.14869 h -11.39756 z"
       style="fill:#ff7f0e;fill-opacity:1;fill-rule:nonzero;stroke:none"
       transform="matrix(1.3333333,0,0,-1.3333333,0,576)"
       clip-path="url(#clipPath52)" />
    <path
       id="path53"
       d="m 415.40342,260.03 h 11.39757 v 138.40573 h -11.39757 z"
       style="fill:#ff7f0e;fill-opacity:1;fill-rule:nonzero;stroke:none"
       transform="matrix(1.3333333,0,0,-1.3333333,0,576)"
       clip-path="url(#clipPath54)" />
    <path
       id="path55"
       d="m 447.96789,260.03 h 11.39757 v 67.5181 h -11.39757 z"
       style="fill:#ff7f0e;fill-opacity:1;fill-rule:nonzero;stroke:none"
       transform="matrix(1.3333333,0,0,-1.3333333,0,576)"
       clip-path="url(#clipPath56)" />
    <path
       id="path57"
       d="m 480.53237,260.03 h 11.39756 v 19.52245 h -11.39756 z"
       style="fill:#ff7f0e;fill-opacity:1;fill-rule:nonzero;stroke:none"
       transform="matrix(1.3333333,0,0,-1.3333333,0,576)"
       clip-path="url(#clipPath58)" />
    <path
       id="path59"
       d="m 513.09684,260.03 h 11.39757 v 36.23828 h -11.39757 z"
       style="fill:#ff7f0e;fill-opacity:1;fill-rule:nonzero;stroke:none"
       transform="matrix(1.3333333,0,0,-1.3333333,0,576)"
       clip-path="url(#clipPath60)" />
    <path
       id="path61"
       d="m 545.66132,260.03 h 11.39756 v 64.33834 h -11.39756 z"
       style="fill:#ff7f0e;fill-opacity:1;fill-rule:nonzero;stroke:none"
       transform="matrix(1.3333333,0,0,-1.3333333,0,576)"
       clip-path="url(#clipPath62)" />
    <path
       id="path63"
       d="m 89.758684,260.03 v -3.5"
       style="fill:#000000;fill-opacity:1;fill-rule:nonzero;stroke:#000000;stroke-width:0.8;stroke-linecap:butt;stroke-linejoin:round;stroke-miterlimit:10;stroke-dasharray:none;stroke-opacity:1"
       transform="matrix(1.3333333,0,0,-1.3333333,0,576)" />
    <text
       id="text63"
       xml:space="preserve"
       transform="matrix(0,-1.3333333,1.3333333,0,123.05325,439.835)"><tspan
         style="font-variant:normal;font-weight:normal;font-size:10px;font-family:DejaVuSans;writing-mode:lr-tb;fill:#000000;fill-opacity:1;fill-rule:nonzero;stroke:none"
         x="0 2.95 10.65 16.969999 24.450001 30.559999 33.509998 39.259998 42.209999 49.189999 55.858124 62.838123 69.506248 77.376251 82.376251 89.856247 97.72625 103.83625 106.78625 112.53625 115.48625 122.46625 129.13437 136.11438 142.7825"
         y="0"
         sodipodi:role="line"
         id="tspan63">IDENTIFICACAO_NOTIFICACAO</tspan></text>
    <path
       id="path64"
       d="m 122.32316,260.03 v -3.5"
       style="fill:#000000;fill-opacity:1;fill-rule:nonzero;stroke:#000000;stroke-width:0.8;stroke-linecap:butt;stroke-linejoin:round;stroke-miterlimit:10;stroke-dasharray:none;stroke-opacity:1"
       transform="matrix(1.3333333,0,0,-1.3333333,0,576)" />
    <text
       id="text64"
       xml:space="preserve"
       transform="matrix(0,-1.3333333,1.3333333,0,166.47254,470.835)"><tspan
         style="font-variant:normal;font-weight:normal;font-size:10px;font-family:DejaVuSans;writing-mode:lr-tb;fill:#000000;fill-opacity:1;fill-rule:nonzero;stroke:none"
         x="0 6.9499998 13.27 19.05875 25.726875 32.706875 39.375 47.244999 52.244999 60.875 67.195 74.894997 77.845001 84.824997 91.665001 100.295 106.615 114.095 120.205 128.075 133.075 139.395 146.235 152.55499 160.035 166.145"
         y="0"
         sodipodi:role="line"
         id="tspan64">RELACAO_MEDICAMENTO_EVENTO</tspan></text>
    <path
       id="path65"
       d="m 154.88763,260.03 v -3.5"
       style="fill:#000000;fill-opacity:1;fill-rule:nonzero;stroke:#000000;stroke-width:0.8;stroke-linecap:butt;stroke-linejoin:round;stroke-miterlimit:10;stroke-dasharray:none;stroke-opacity:1"
       transform="matrix(1.3333333,0,0,-1.3333333,0,576)" />
    <text
       id="text65"
       xml:space="preserve"
       transform="matrix(0,-1.3333333,1.3333333,0,209.89184,466.81417)"><tspan
         style="font-variant:normal;font-weight:normal;font-size:10px;font-family:DejaVuSans;writing-mode:lr-tb;fill:#000000;fill-opacity:1;fill-rule:nonzero;stroke:none"
         x="0 7.48 15.35 23.98 30.299999 35.299999 43.93 50.25 57.950001 60.900002 67.879997 74.720001 83.349998 89.669998 97.150002 103.26 111.13 116.13 126.02 133.53999 141.41 149.11 156.06 163.38"
         y="0"
         sodipodi:role="line"
         id="tspan65">NOME_MEDICAMENTO_WHODRUG</tspan></text>
    <path
       id="path66"
       d="m 187.45211,260.03 v -3.5"
       style="fill:#000000;fill-opacity:1;fill-rule:nonzero;stroke:#000000;stroke-width:0.8;stroke-linecap:butt;stroke-linejoin:round;stroke-miterlimit:10;stroke-dasharray:none;stroke-opacity:1"
       transform="matrix(1.3333333,0,0,-1.3333333,0,576)" />
    <text
       id="text66"
       xml:space="preserve"
       transform="matrix(0,-1.3333333,1.3333333,0,253.31114,448.85583)"><tspan
         style="font-variant:normal;font-weight:normal;font-size:10px;font-family:DejaVuSans;writing-mode:lr-tb;fill:#000000;fill-opacity:1;fill-rule:nonzero;stroke:none"
         x="0 6.0300002 12.98 15.93 23.41 30.389999 33.34 39.369999 42.32 50.189999 56.540001 61.540001 67.614372 73.724373 76.674377 83.342499 91.212502 97.5625 102.5625 112.4525 119.9725 127.8425 135.5425 142.49249 149.8125"
         y="0"
         sodipodi:role="line"
         id="tspan66">PRINCIPIOS_ATIVOS_WHODRUG</tspan></text>
    <path
       id="path67"
       d="m 220.01658,260.03 v -3.5"
       style="fill:#000000;fill-opacity:1;fill-rule:nonzero;stroke:#000000;stroke-width:0.8;stroke-linecap:butt;stroke-linejoin:round;stroke-miterlimit:10;stroke-dasharray:none;stroke-opacity:1"
       transform="matrix(1.3333333,0,0,-1.3333333,0,576)" />
    <text
       id="text67"
       xml:space="preserve"
       transform="matrix(0,-1.3333333,1.3333333,0,296.73044,324.8975)"><tspan
         style="font-variant:normal;font-weight:normal;font-size:10px;font-family:DejaVuSans;writing-mode:lr-tb;fill:#000000;fill-opacity:1;fill-rule:nonzero;stroke:none"
         x="0 6.98 14.85 22.549999 25.5 33.25 41.119999 46.119999 52.194374 57.72625"
         y="0"
         sodipodi:role="line"
         id="tspan67">CODIGO_ATC</tspan></text>
    <path
       id="path68"
       d="m 252.58105,260.03 v -3.5"
       style="fill:#000000;fill-opacity:1;fill-rule:nonzero;stroke:#000000;stroke-width:0.8;stroke-linecap:butt;stroke-linejoin:round;stroke-miterlimit:10;stroke-dasharray:none;stroke-opacity:1"
       transform="matrix(1.3333333,0,0,-1.3333333,0,576)" />
    <text
       id="text68"
       xml:space="preserve"
       transform="matrix(0,-1.3333333,1.3333333,0,340.45182,350.7725)"><tspan
         style="font-variant:normal;font-weight:normal;font-size:10px;font-family:DejaVuSans;writing-mode:lr-tb;fill:#000000;fill-opacity:1;fill-rule:nonzero;stroke:none"
         x="0 6.98 14.85 22.33 29.309999 35.630001 43.110001 49.220001 55.763748 62.431873 69.411873 76.080002"
         y="0"
         sodipodi:role="line"
         id="tspan68">CONCENTRACAO</tspan></text>
    <path
       id="path69"
       d="m 285.14553,260.03 v -3.5"
       style="fill:#000000;fill-opacity:1;fill-rule:nonzero;stroke:#000000;stroke-width:0.8;stroke-linecap:butt;stroke-linejoin:round;stroke-miterlimit:10;stroke-dasharray:none;stroke-opacity:1"
       transform="matrix(1.3333333,0,0,-1.3333333,0,576)" />
    <text
       id="text69"
       xml:space="preserve"
       transform="matrix(0,-1.3333333,1.3333333,0,383.56904,348.41833)"><tspan
         style="font-variant:normal;font-weight:normal;font-size:10px;font-family:DejaVuSans;writing-mode:lr-tb;fill:#000000;fill-opacity:1;fill-rule:nonzero;stroke:none"
         x="0 6.6681252 13.648125 20.31625 28.186251 33.186249 40.026249 47.72625 55.596249 60.940624 67.780624 75.308746"
         y="0"
         sodipodi:role="line"
         id="tspan69">ACAO_ADOTADA</tspan></text>
    <path
       id="path70"
       d="m 317.71,260.03 v -3.5"
       style="fill:#000000;fill-opacity:1;fill-rule:nonzero;stroke:#000000;stroke-width:0.8;stroke-linecap:butt;stroke-linejoin:round;stroke-miterlimit:10;stroke-dasharray:none;stroke-opacity:1"
       transform="matrix(1.3333333,0,0,-1.3333333,0,576)" />
    <text
       id="text70"
       xml:space="preserve"
       transform="matrix(0,-1.3333333,1.3333333,0,426.98833,378.81417)"><tspan
         style="font-variant:normal;font-weight:normal;font-size:10px;font-family:DejaVuSans;writing-mode:lr-tb;fill:#000000;fill-opacity:1;fill-rule:nonzero;stroke:none"
         x="0 2.95 10.43 18.129999 21.08 28.059999 34.728127 41.708126 48.376251 56.24625 61.24625 69.876251 76.196251 83.896248 91.596252 98.139999"
         y="0"
         sodipodi:role="line"
         id="tspan70">INDICACAO_MEDDRA</tspan></text>
    <path
       id="path71"
       d="m 350.27447,260.03 v -3.5"
       style="fill:#000000;fill-opacity:1;fill-rule:nonzero;stroke:#000000;stroke-width:0.8;stroke-linecap:butt;stroke-linejoin:round;stroke-miterlimit:10;stroke-dasharray:none;stroke-opacity:1"
       transform="matrix(1.3333333,0,0,-1.3333333,0,576)" />
    <text
       id="text71"
       xml:space="preserve"
       transform="matrix(0,-1.3333333,1.3333333,0,470.40763,543.18917)"><tspan
         style="font-variant:normal;font-weight:normal;font-size:10px;font-family:DejaVuSans;writing-mode:lr-tb;fill:#000000;fill-opacity:1;fill-rule:nonzero;stroke:none"
         x="0 2.95 10.43 18.129999 21.08 28.059999 34.728127 41.708126 48.376251 56.24625 61.24625 68.196251 74.516251 80.305 86.379372 91.723747 98.563751 106.09187 112.93188 117.93188 125.41187 133.28188 139.39188 142.34187 148.09187 151.04187 158.02188 164.86188 172.56187 180.43187 187.38188 192.38188 195.33188 202.81187 205.76187 212.74188 215.69188 222.53188"
         y="0"
         sodipodi:role="line"
         id="tspan71">INDICACAO_RELATADA_NOTIFICADOR_INICIAL</tspan></text>
    <path
       id="path72"
       d="m 382.83895,260.03 v -3.5"
       style="fill:#000000;fill-opacity:1;fill-rule:nonzero;stroke:#000000;stroke-width:0.8;stroke-linecap:butt;stroke-linejoin:round;stroke-miterlimit:10;stroke-dasharray:none;stroke-opacity:1"
       transform="matrix(1.3333333,0,0,-1.3333333,0,576)" />
    <text
       id="text72"
       xml:space="preserve"
       transform="matrix(0,-1.3333333,1.3333333,0,514.12901,276.2725)"><tspan
         style="font-variant:normal;font-weight:normal;font-size:10px;font-family:DejaVuSans;writing-mode:lr-tb;fill:#000000;fill-opacity:1;fill-rule:nonzero;stroke:none"
         x="0 7.6999998 15.57 21.92"
         y="0"
         sodipodi:role="line"
         id="tspan72">DOSE</tspan></text>
    <path
       id="path73"
       d="m 415.40342,260.03 v -3.5"
       style="fill:#000000;fill-opacity:1;fill-rule:nonzero;stroke:#000000;stroke-width:0.8;stroke-linecap:butt;stroke-linejoin:round;stroke-miterlimit:10;stroke-dasharray:none;stroke-opacity:1"
       transform="matrix(1.3333333,0,0,-1.3333333,0,576)" />
    <text
       id="text73"
       xml:space="preserve"
       transform="matrix(0,-1.3333333,1.3333333,0,557.24623,369.335)"><tspan
         style="font-variant:normal;font-weight:normal;font-size:10px;font-family:DejaVuSans;writing-mode:lr-tb;fill:#000000;fill-opacity:1;fill-rule:nonzero;stroke:none"
         x="0 5.75 12.7 19.02 26.889999 34.209999 40.529999 48.009998 54.990002 57.939999 64.779999 69.779999 77.480003 85.349998 91.699997"
         y="0"
         sodipodi:role="line"
         id="tspan73">FREQUENCIA_DOSE</tspan></text>
    <path
       id="path74"
       d="m 447.96789,260.03 v -3.5"
       style="fill:#000000;fill-opacity:1;fill-rule:nonzero;stroke:#000000;stroke-width:0.8;stroke-linecap:butt;stroke-linejoin:round;stroke-miterlimit:10;stroke-dasharray:none;stroke-opacity:1"
       transform="matrix(1.3333333,0,0,-1.3333333,0,576)" />
    <text
       id="text74"
       xml:space="preserve"
       transform="matrix(0,-1.3333333,1.3333333,0,600.96761,316.96)"><tspan
         style="font-variant:normal;font-weight:normal;font-size:10px;font-family:DejaVuSans;writing-mode:lr-tb;fill:#000000;fill-opacity:1;fill-rule:nonzero;stroke:none"
         x="0 6.0300002 13.9 20.25 28.120001 33.346249 41.216251 48.966251 51.916248"
         y="0"
         sodipodi:role="line"
         id="tspan74">POSOLOGIA</tspan></text>
    <path
       id="path75"
       d="m 480.53237,260.03 v -3.5"
       style="fill:#000000;fill-opacity:1;fill-rule:nonzero;stroke:#000000;stroke-width:0.8;stroke-linecap:butt;stroke-linejoin:round;stroke-miterlimit:10;stroke-dasharray:none;stroke-opacity:1"
       transform="matrix(1.3333333,0,0,-1.3333333,0,576)" />
    <text
       id="text75"
       xml:space="preserve"
       transform="matrix(0,-1.3333333,1.3333333,0,644.38691,305.16833)"><tspan
         style="font-variant:normal;font-weight:normal;font-size:10px;font-family:DejaVuSans;writing-mode:lr-tb;fill:#000000;fill-opacity:1;fill-rule:nonzero;stroke:none"
         x="0 7.6999998 15.02 21.563749 28.231874 35.211876 41.880001"
         y="0"
         sodipodi:role="line"
         id="tspan75">DURACAO</tspan></text>
    <path
       id="path76"
       d="m 513.09684,260.03 v -3.5"
       style="fill:#000000;fill-opacity:1;fill-rule:nonzero;stroke:#000000;stroke-width:0.8;stroke-linecap:butt;stroke-linejoin:round;stroke-miterlimit:10;stroke-dasharray:none;stroke-opacity:1"
       transform="matrix(1.3333333,0,0,-1.3333333,0,576)" />
    <text
       id="text76"
       xml:space="preserve"
       transform="matrix(0,-1.3333333,1.3333333,0,687.50412,396.73083)"><tspan
         style="font-variant:normal;font-weight:normal;font-size:10px;font-family:DejaVuSans;writing-mode:lr-tb;fill:#000000;fill-opacity:1;fill-rule:nonzero;stroke:none"
         x="0 5.75 13.62 20.57 29.200001 36.040001 41.040001 45.883751 52.723751 59.673752 68.303749 74.971878 81.951874 88.271873 95.591873 101.70187 104.65188 111.63187"
         y="0"
         sodipodi:role="line"
         id="tspan76">FORMA_FARMACEUTICA</tspan></text>
    <path
       id="path77"
       d="m 545.66132,260.03 v -3.5"
       style="fill:#000000;fill-opacity:1;fill-rule:nonzero;stroke:#000000;stroke-width:0.8;stroke-linecap:butt;stroke-linejoin:round;stroke-miterlimit:10;stroke-dasharray:none;stroke-opacity:1"
       transform="matrix(1.3333333,0,0,-1.3333333,0,576)" />
    <text
       id="text77"
       xml:space="preserve"
       transform="matrix(0,-1.3333333,1.3333333,0,730.92342,379.335)"><tspan
         style="font-variant:normal;font-weight:normal;font-size:10px;font-family:DejaVuSans;writing-mode:lr-tb;fill:#000000;fill-opacity:1;fill-rule:nonzero;stroke:none"
         x="0 6.8400002 9.79 16.629999 21.629999 28.469999 36.169998 44.799999 47.75 55.23 58.18 64.529999 70.639999 77.183746 83.851875 90.831879 97.5"
         y="0"
         sodipodi:role="line"
         id="tspan77">VIA_ADMINISTRACAO</tspan></text>
    <text
       id="text78"
       xml:space="preserve"
       transform="matrix(1.3333333,0,0,1.3333333,396.99875,558.6475)"><tspan
         style="font-variant:normal;font-weight:normal;font-size:10px;font-family:DejaVuSans;writing-mode:lr-tb;fill:#000000;fill-opacity:1;fill-rule:nonzero;stroke:none"
         x="0 6.98 13.1 15.88 22.219999 28.559999 34.689999"
         y="0"
         sodipodi:role="line"
         id="tspan78">Colunas</tspan></text>
    <path
       id="path78"
       d="m 70.22,260.03 h -3.5"
       style="fill:#000000;fill-opacity:1;fill-rule:nonzero;stroke:#000000;stroke-width:0.8;stroke-linecap:butt;stroke-linejoin:round;stroke-miterlimit:10;stroke-dasharray:none;stroke-opacity:1"
       transform="matrix(1.3333333,0,0,-1.3333333,0,576)" />
    <text
       id="text79"
       xml:space="preserve"
       transform="matrix(1.3333333,0,0,1.3333333,75.814167,234.35583)"><tspan
         style="font-variant:normal;font-weight:normal;font-size:10px;font-family:DejaVuSans;writing-mode:lr-tb;fill:#000000;fill-opacity:1;fill-rule:nonzero;stroke:none"
         x="0"
         y="0"
         id="tspan79">0</tspan></text>
    <path
       id="path79"
       d="m 70.22,292.03244 h -3.5"
       style="fill:#000000;fill-opacity:1;fill-rule:nonzero;stroke:#000000;stroke-width:0.8;stroke-linecap:butt;stroke-linejoin:round;stroke-miterlimit:10;stroke-dasharray:none;stroke-opacity:1"
       transform="matrix(1.3333333,0,0,-1.3333333,0,576)" />
    <text
       id="text80"
       xml:space="preserve"
       transform="matrix(1.3333333,0,0,1.3333333,33.418333,191.68592)"><tspan
         style="font-variant:normal;font-weight:normal;font-size:10px;font-family:DejaVuSans;writing-mode:lr-tb;fill:#000000;fill-opacity:1;fill-rule:nonzero;stroke:none"
         x="0 6.3600001 12.72 19.08 25.440001 31.799999"
         y="0"
         sodipodi:role="line"
         id="tspan80">100000</tspan></text>
    <path
       id="path80"
       d="m 70.22,324.03487 h -3.5"
       style="fill:#000000;fill-opacity:1;fill-rule:nonzero;stroke:#000000;stroke-width:0.8;stroke-linecap:butt;stroke-linejoin:round;stroke-miterlimit:10;stroke-dasharray:none;stroke-opacity:1"
       transform="matrix(1.3333333,0,0,-1.3333333,0,576)" />
    <text
       id="text81"
       xml:space="preserve"
       transform="matrix(1.3333333,0,0,1.3333333,33.418333,149.01601)"><tspan
         style="font-variant:normal;font-weight:normal;font-size:10px;font-family:DejaVuSans;writing-mode:lr-tb;fill:#000000;fill-opacity:1;fill-rule:nonzero;stroke:none"
         x="0 6.3600001 12.72 19.08 25.440001 31.799999"
         y="0"
         sodipodi:role="line"
         id="tspan81">200000</tspan></text>
    <path
       id="path81"
       d="m 70.22,356.03731 h -3.5"
       style="fill:#000000;fill-opacity:1;fill-rule:nonzero;stroke:#000000;stroke-width:0.8;stroke-linecap:butt;stroke-linejoin:round;stroke-miterlimit:10;stroke-dasharray:none;stroke-opacity:1"
       transform="matrix(1.3333333,0,0,-1.3333333,0,576)" />
    <text
       id="text82"
       xml:space="preserve"
       transform="matrix(1.3333333,0,0,1.3333333,33.418333,106.34609)"><tspan
         style="font-variant:normal;font-weight:normal;font-size:10px;font-family:DejaVuSans;writing-mode:lr-tb;fill:#000000;fill-opacity:1;fill-rule:nonzero;stroke:none"
         x="0 6.3600001 12.72 19.08 25.440001 31.799999"
         y="0"
         sodipodi:role="line"
         id="tspan82">300000</tspan></text>
    <path
       id="path82"
       d="m 70.22,388.03974 h -3.5"
       style="fill:#000000;fill-opacity:1;fill-rule:nonzero;stroke:#000000;stroke-width:0.8;stroke-linecap:butt;stroke-linejoin:round;stroke-miterlimit:10;stroke-dasharray:none;stroke-opacity:1"
       transform="matrix(1.3333333,0,0,-1.3333333,0,576)" />
    <text
       id="text83"
       xml:space="preserve"
       transform="matrix(1.3333333,0,0,1.3333333,33.418333,63.676177)"><tspan
         style="font-variant:normal;font-weight:normal;font-size:10px;font-family:DejaVuSans;writing-mode:lr-tb;fill:#000000;fill-opacity:1;fill-rule:nonzero;stroke:none"
         x="0 6.3600001 12.72 19.08 25.440001 31.799999"
         y="0"
         sodipodi:role="line"
         id="tspan83">400000</tspan></text>
    <text
       id="text84"
       xml:space="preserve"
       transform="rotate(-90)"
       x="-192.26292"
       y="17.314167"
       style="font-size:16px;stroke-width:1.33333"><tspan
         style="font-variant:normal;font-weight:normal;font-size:13.3333px;font-family:DejaVuSans;writing-mode:lr-tb;fill:#000000;fill-opacity:1;fill-rule:nonzero;stroke:none;stroke-width:1.33333"
         x="-192.26292 -182.28958 -173.83626 -160.84959 -152.64958 -147.46126 -139.30125 -135.06125 -126.59459 -118.39459 -114.15459 -106.72792 -103.02126 -94.567924 -86.114586 -77.941254"
         y="17.314167"
         sodipodi:role="line"
         id="tspan84">Número de Linhas</tspan></text>
    <path
       id="path84"
       d="M 70.22,260.03 V 406.56"
       style="fill:none;stroke:#000000;stroke-width:0.8;stroke-linecap:square;stroke-linejoin:miter;stroke-miterlimit:10;stroke-dasharray:none;stroke-opacity:1"
       transform="matrix(1.3333333,0,0,-1.3333333,0,576)" />
    <path
       id="path86"
       d="M 70.22,260.03 H 565.2"
       style="fill:none;stroke:#000000;stroke-width:0.8;stroke-linecap:square;stroke-linejoin:miter;stroke-miterlimit:10;stroke-dasharray:none;stroke-opacity:1"
       transform="matrix(1.3333333,0,0,-1.3333333,0,576)" />
    <text
       id="text87"
       xml:space="preserve"
       x="250.35292"
       y="23.92"
       style="font-size:16px;stroke-width:1.33333"><tspan
         style="font-variant:normal;font-weight:normal;font-size:16px;font-family:DejaVuSans;writing-mode:lr-tb;fill:#000000;fill-opacity:1;fill-rule:nonzero;stroke:none;stroke-width:1.33333"
         x="250.35292 260.06775 269.87576 274.32376 284.11575 290.35843 300.19843 308.53442 313.62241 324.56641 334.71042 343.04642 352.88641 363.03043 369.30243 379.14243 387.47839 392.56644 402.4064 407.49442 416.87158 423.11426 432.95425 442.79425 452.93823 461.73825 471.88226 476.33026 486.49023 496.28226 504.61826 509.70624 519.86621 529.65826 536.23425 541.32227 552.49023 562.28223 566.73022 576.87427 587.01825"
         y="23.92"
         sodipodi:role="line"
         id="tspan87">Valores Ausentes e Preenchidos por Coluna</tspan></text>
    <path
       id="path88"
       d="m 714.13288,65.771782 h 139.0941 c 2.67569,0 4.01354,-0.882776 4.01354,-2.648315 V 25.59188 c 0,-1.765539 -1.33785,-2.648315 -4.01354,-2.648315 h -139.0941 c -2.67568,0 -4.01353,0.882776 -4.01353,2.648315 v 37.531587 c 0,1.765539 1.33785,2.648315 4.01353,2.648315 z"
       style="fill:#ffffff;fill-opacity:0.8;fill-rule:nonzero;stroke:#cccccc;stroke-width:1.63012;stroke-linecap:butt;stroke-linejoin:miter;stroke-miterlimit:10;stroke-dasharray:none;stroke-opacity:0.8" />
    <path
       id="path89"
       d="m 715.3043,38.253507 h 26.66666 V 28.920174 H 715.3043 Z"
       style="fill:#1f77b4;fill-opacity:1;fill-rule:nonzero;stroke:none;stroke-width:1.33333" />
    <text
       id="text89"
       xml:space="preserve"
       style="font-style:normal;font-variant:normal;font-weight:normal;font-stretch:normal;font-size:16px;font-family:sans-serif;-inkscape-font-specification:'sans-serif, Normal';font-variant-ligatures:normal;font-variant-caps:normal;font-variant-numeric:normal;font-variant-east-asian:normal;stroke-width:1.33333"
       x="752.63763"
       y="38.253494"><tspan
         sodipodi:role="line"
         id="tspan93">Ausentes</tspan></text>
    <path
       id="path90"
       d="m 715.3043,57.816013 h 26.66666 V 48.48268 H 715.3043 Z"
       style="fill:#ff7f0e;fill-opacity:1;fill-rule:nonzero;stroke:none;stroke-width:1.33333" />
    <text
       id="text90"
       xml:space="preserve"
       style="font-style:normal;font-variant:normal;font-weight:normal;font-stretch:normal;font-size:16px;font-family:sans-serif;-inkscape-font-specification:'sans-serif, Normal';font-variant-ligatures:normal;font-variant-caps:normal;font-variant-numeric:normal;font-variant-east-asian:normal;stroke-width:1.33333"
       x="752.63763"
       y="57.815994"><tspan
         sodipodi:role="line"
         id="tspan92"
         x="752.63763"
         y="57.815994"
         style="stroke-width:1.33333">Preenchidos</tspan></text>
  </g>
</svg>
