<?xml version="1.0" encoding="UTF-8" standalone="no"?>
<!-- Created with Inkscape (http://www.inkscape.org/) -->

<svg
   version="1.1"
   id="svg1"
   width="835.45947"
   height="578.96527"
   viewBox="0 0 835.45947 578.96527"
   sodipodi:docname="notificacoes_missing_filled_editado.svg"
   inkscape:version="1.3.2 (091e20e, 2023-11-25, custom)"
   xmlns:inkscape="http://www.inkscape.org/namespaces/inkscape"
   xmlns:sodipodi="http://sodipodi.sourceforge.net/DTD/sodipodi-0.dtd"
   xmlns="http://www.w3.org/2000/svg"
   xmlns:svg="http://www.w3.org/2000/svg">
  <defs
     id="defs1">
    <clipPath
       clipPathUnits="userSpaceOnUse"
       id="clipPath4">
      <path
         d="M 70.22,182.45 H 565.2 V 406.56 H 70.22 Z"
         id="path4" />
    </clipPath>
    <clipPath
       clipPathUnits="userSpaceOnUse"
       id="clipPath6">
      <path
         d="M 70.22,182.45 H 565.2 V 406.56 H 70.22 Z"
         id="path6" />
    </clipPath>
    <clipPath
       clipPathUnits="userSpaceOnUse"
       id="clipPath8">
      <path
         d="M 70.22,182.45 H 565.2 V 406.56 H 70.22 Z"
         id="path8" />
    </clipPath>
    <clipPath
       clipPathUnits="userSpaceOnUse"
       id="clipPath10">
      <path
         d="M 70.22,182.45 H 565.2 V 406.56 H 70.22 Z"
         id="path10" />
    </clipPath>
    <clipPath
       clipPathUnits="userSpaceOnUse"
       id="clipPath12">
      <path
         d="M 70.22,182.45 H 565.2 V 406.56 H 70.22 Z"
         id="path12" />
    </clipPath>
    <clipPath
       clipPathUnits="userSpaceOnUse"
       id="clipPath14">
      <path
         d="M 70.22,182.45 H 565.2 V 406.56 H 70.22 Z"
         id="path14" />
    </clipPath>
    <clipPath
       clipPathUnits="userSpaceOnUse"
       id="clipPath16">
      <path
         d="M 70.22,182.45 H 565.2 V 406.56 H 70.22 Z"
         id="path16" />
    </clipPath>
    <clipPath
       clipPathUnits="userSpaceOnUse"
       id="clipPath18">
      <path
         d="M 70.22,182.45 H 565.2 V 406.56 H 70.22 Z"
         id="path18" />
    </clipPath>
    <clipPath
       clipPathUnits="userSpaceOnUse"
       id="clipPath20">
      <path
         d="M 70.22,182.45 H 565.2 V 406.56 H 70.22 Z"
         id="path20" />
    </clipPath>
    <clipPath
       clipPathUnits="userSpaceOnUse"
       id="clipPath22">
      <path
         d="M 70.22,182.45 H 565.2 V 406.56 H 70.22 Z"
         id="path22" />
    </clipPath>
    <clipPath
       clipPathUnits="userSpaceOnUse"
       id="clipPath24">
      <path
         d="M 70.22,182.45 H 565.2 V 406.56 H 70.22 Z"
         id="path24" />
    </clipPath>
    <clipPath
       clipPathUnits="userSpaceOnUse"
       id="clipPath26">
      <path
         d="M 70.22,182.45 H 565.2 V 406.56 H 70.22 Z"
         id="path26" />
    </clipPath>
    <clipPath
       clipPathUnits="userSpaceOnUse"
       id="clipPath28">
      <path
         d="M 70.22,182.45 H 565.2 V 406.56 H 70.22 Z"
         id="path28" />
    </clipPath>
    <clipPath
       clipPathUnits="userSpaceOnUse"
       id="clipPath30">
      <path
         d="M 70.22,182.45 H 565.2 V 406.56 H 70.22 Z"
         id="path30" />
    </clipPath>
  </defs>
  <sodipodi:namedview
     id="namedview1"
     pagecolor="#ffffff"
     bordercolor="#000000"
     borderopacity="0.25"
     inkscape:showpageshadow="2"
     inkscape:pageopacity="0.0"
     inkscape:pagecheckerboard="0"
     inkscape:deskcolor="#d1d1d1"
     inkscape:zoom="1.3489583"
     inkscape:cx="384"
     inkscape:cy="290.22394"
     inkscape:window-width="1920"
     inkscape:window-height="991"
     inkscape:window-x="-9"
     inkscape:window-y="-9"
     inkscape:window-maximized="1"
     inkscape:current-layer="g1">
    <inkscape:page
       x="0"
       y="0"
       inkscape:label="1"
       id="page1"
       width="835.45947"
       height="578.96527"
       margin="0"
       bleed="0" />
  </sodipodi:namedview>
  <g
     id="g1"
     inkscape:groupmode="layer"
     inkscape:label="1"
     transform="translate(0,2.965251)">
    <path
       id="path1"
       d="M 0,0 H 576 V 432 H 0 Z"
       style="fill:#ffffff;fill-opacity:1;fill-rule:nonzero;stroke:none"
       transform="matrix(1.3333333,0,0,-1.3333333,0,576)" />
    <path
       id="path2"
       d="M 70.22,182.45 H 565.2 V 406.56 H 70.22 Z"
       style="fill:#ffffff;fill-opacity:1;fill-rule:nonzero;stroke:none"
       transform="matrix(1.3333333,0,0,-1.3333333,0,576)" />
    <path
       id="path3"
       d="m 87.406806,182.45 h 24.061524 v 0 z"
       style="fill:#1f77b4;fill-opacity:1;fill-rule:nonzero;stroke:none"
       transform="matrix(1.3333333,0,0,-1.3333333,0,576)"
       clip-path="url(#clipPath4)" />
    <path
       id="path5"
       d="m 156.15403,182.45 h 24.06153 v 0 z"
       style="fill:#1f77b4;fill-opacity:1;fill-rule:nonzero;stroke:none"
       transform="matrix(1.3333333,0,0,-1.3333333,0,576)"
       clip-path="url(#clipPath6)" />
    <path
       id="path7"
       d="m 224.90125,182.45 h 24.06153 v 101.94824 h -24.06153 z"
       style="fill:#1f77b4;fill-opacity:1;fill-rule:nonzero;stroke:none"
       transform="matrix(1.3333333,0,0,-1.3333333,0,576)"
       clip-path="url(#clipPath8)" />
    <path
       id="path9"
       d="M 293.64847,182.45 H 317.71 v 0 z"
       style="fill:#1f77b4;fill-opacity:1;fill-rule:nonzero;stroke:none"
       transform="matrix(1.3333333,0,0,-1.3333333,0,576)"
       clip-path="url(#clipPath10)" />
    <path
       id="path11"
       d="m 362.39569,182.45 h 24.06153 v 55.19833 h -24.06153 z"
       style="fill:#1f77b4;fill-opacity:1;fill-rule:nonzero;stroke:none"
       transform="matrix(1.3333333,0,0,-1.3333333,0,576)"
       clip-path="url(#clipPath12)" />
    <path
       id="path13"
       d="m 431.14292,182.45 h 24.06152 v 80.52764 h -24.06152 z"
       style="fill:#1f77b4;fill-opacity:1;fill-rule:nonzero;stroke:none"
       transform="matrix(1.3333333,0,0,-1.3333333,0,576)"
       clip-path="url(#clipPath14)" />
    <path
       id="path15"
       d="m 499.89014,182.45 h 24.06153 v 7.59804 h -24.06153 z"
       style="fill:#1f77b4;fill-opacity:1;fill-rule:nonzero;stroke:none"
       transform="matrix(1.3333333,0,0,-1.3333333,0,576)"
       clip-path="url(#clipPath16)" />
    <path
       id="path17"
       d="m 111.46833,182.45 h 24.06153 v 213.43809 h -24.06153 z"
       style="fill:#ff7f0e;fill-opacity:1;fill-rule:nonzero;stroke:none"
       transform="matrix(1.3333333,0,0,-1.3333333,0,576)"
       clip-path="url(#clipPath18)" />
    <path
       id="path19"
       d="m 180.21556,182.45 h 24.06152 v 213.43809 h -24.06152 z"
       style="fill:#ff7f0e;fill-opacity:1;fill-rule:nonzero;stroke:none"
       transform="matrix(1.3333333,0,0,-1.3333333,0,576)"
       clip-path="url(#clipPath20)" />
    <path
       id="path21"
       d="m 248.96278,182.45 h 24.06153 v 111.48986 h -24.06153 z"
       style="fill:#ff7f0e;fill-opacity:1;fill-rule:nonzero;stroke:none"
       transform="matrix(1.3333333,0,0,-1.3333333,0,576)"
       clip-path="url(#clipPath22)" />
    <path
       id="path23"
       d="m 317.71,182.45 h 24.06153 V 395.88809 H 317.71 Z"
       style="fill:#ff7f0e;fill-opacity:1;fill-rule:nonzero;stroke:none"
       transform="matrix(1.3333333,0,0,-1.3333333,0,576)"
       clip-path="url(#clipPath24)" />
    <path
       id="path25"
       d="m 386.45722,182.45 h 24.06153 v 158.23977 h -24.06153 z"
       style="fill:#ff7f0e;fill-opacity:1;fill-rule:nonzero;stroke:none"
       transform="matrix(1.3333333,0,0,-1.3333333,0,576)"
       clip-path="url(#clipPath26)" />
    <path
       id="path27"
       d="m 455.20444,182.45 h 24.06153 v 132.91045 h -24.06153 z"
       style="fill:#ff7f0e;fill-opacity:1;fill-rule:nonzero;stroke:none"
       transform="matrix(1.3333333,0,0,-1.3333333,0,576)"
       clip-path="url(#clipPath28)" />
    <path
       id="path29"
       d="m 523.95167,182.45 h 24.06152 v 205.84005 h -24.06152 z"
       style="fill:#ff7f0e;fill-opacity:1;fill-rule:nonzero;stroke:none"
       transform="matrix(1.3333333,0,0,-1.3333333,0,576)"
       clip-path="url(#clipPath30)" />
    <path
       id="path31"
       d="m 111.46833,182.45 v -3.5"
       style="fill:#000000;fill-opacity:1;fill-rule:nonzero;stroke:#000000;stroke-width:0.8;stroke-linecap:butt;stroke-linejoin:round;stroke-miterlimit:10;stroke-dasharray:none;stroke-opacity:1"
       transform="matrix(1.3333333,0,0,-1.3333333,0,576)" />
    <text
       id="text31"
       xml:space="preserve"
       transform="matrix(0,-1.3333333,1.3333333,0,151.99944,543.275)"><tspan
         style="font-variant:normal;font-weight:normal;font-size:10px;font-family:DejaVuSans;writing-mode:lr-tb;fill:#000000;fill-opacity:1;fill-rule:nonzero;stroke:none"
         x="0 2.95 10.65 16.969999 24.450001 30.559999 33.509998 39.259998 42.209999 49.189999 55.858124 62.838123 69.506248 77.376251 82.376251 89.856247 97.72625 103.83625 106.78625 112.53625 115.48625 122.46625 129.13437 136.11438 142.7825"
         y="0"
         sodipodi:role="line"
         id="tspan31">IDENTIFICACAO_NOTIFICACAO</tspan></text>
    <path
       id="path32"
       d="m 180.21556,182.45 v -3.5"
       style="fill:#000000;fill-opacity:1;fill-rule:nonzero;stroke:#000000;stroke-width:0.8;stroke-linecap:butt;stroke-linejoin:round;stroke-miterlimit:10;stroke-dasharray:none;stroke-opacity:1"
       transform="matrix(1.3333333,0,0,-1.3333333,0,576)" />
    <text
       id="text32"
       xml:space="preserve"
       transform="matrix(0,-1.3333333,1.3333333,0,243.66241,515.79583)"><tspan
         style="font-variant:normal;font-weight:normal;font-size:10px;font-family:DejaVuSans;writing-mode:lr-tb;fill:#000000;fill-opacity:1;fill-rule:nonzero;stroke:none"
         x="0 7.5281248 13.6025 18.946875 25.786875 30.786875 33.736874 41.216873 48.196877 53.282501 60.602501 67.124374 73.792503 81.662498 86.662498 93.012497 95.962502 102.3125 108.4225 114.7425 123.3725"
         y="0"
         sodipodi:role="line"
         id="tspan32">DATA_INCLUSAO_SISTEMA</tspan></text>
    <path
       id="path33"
       d="m 248.96278,182.45 v -3.5"
       style="fill:#000000;fill-opacity:1;fill-rule:nonzero;stroke:#000000;stroke-width:0.8;stroke-linecap:butt;stroke-linejoin:round;stroke-miterlimit:10;stroke-dasharray:none;stroke-opacity:1"
       transform="matrix(1.3333333,0,0,-1.3333333,0,576)" />
    <text
       id="text33"
       xml:space="preserve"
       transform="matrix(0,-1.3333333,1.3333333,0,335.32537,474.44167)"><tspan
         style="font-variant:normal;font-weight:normal;font-size:10px;font-family:DejaVuSans;writing-mode:lr-tb;fill:#000000;fill-opacity:1;fill-rule:nonzero;stroke:none"
         x="0 7.5281248 13.6025 18.946875 25.786875 30.786875 38.266876 46.136875 52.246876 55.196877 60.946877 63.896873 70.876877 77.544998 84.525002 91.193123"
         y="0"
         sodipodi:role="line"
         id="tspan33">DATA_NOTIFICACAO</tspan></text>
    <path
       id="path34"
       d="m 317.71,182.45 v -3.5"
       style="fill:#000000;fill-opacity:1;fill-rule:nonzero;stroke:#000000;stroke-width:0.8;stroke-linecap:butt;stroke-linejoin:round;stroke-miterlimit:10;stroke-dasharray:none;stroke-opacity:1"
       transform="matrix(1.3333333,0,0,-1.3333333,0,576)" />
    <text
       id="text34"
       xml:space="preserve"
       transform="matrix(0,-1.3333333,1.3333333,0,426.98833,470.56667)"><tspan
         style="font-variant:normal;font-weight:normal;font-size:10px;font-family:DejaVuSans;writing-mode:lr-tb;fill:#000000;fill-opacity:1;fill-rule:nonzero;stroke:none"
         x="0 6.1100001 9.0600004 15.09 22.959999 27.959999 35.439999 43.310001 49.419998 52.369999 58.119999 61.07 68.050003 74.718124 81.698128 88.366249"
         y="0"
         sodipodi:role="line"
         id="tspan34">TIPO_NOTIFICACAO</tspan></text>
    <path
       id="path35"
       d="m 386.45722,182.45 v -3.5"
       style="fill:#000000;fill-opacity:1;fill-rule:nonzero;stroke:#000000;stroke-width:0.8;stroke-linecap:butt;stroke-linejoin:round;stroke-miterlimit:10;stroke-dasharray:none;stroke-opacity:1"
       transform="matrix(1.3333333,0,0,-1.3333333,0,576)" />
    <text
       id="text35"
       xml:space="preserve"
       transform="matrix(0,-1.3333333,1.3333333,0,518.6513,472.5875)"><tspan
         style="font-variant:normal;font-weight:normal;font-size:10px;font-family:DejaVuSans;writing-mode:lr-tb;fill:#000000;fill-opacity:1;fill-rule:nonzero;stroke:none"
         x="0 7.5281248 13.6025 18.946875 25.786875 30.786875 38.266876 45.106876 51.456875 58.436874 61.386875 70.016876 76.336876 83.816872 89.926872"
         y="0"
         sodipodi:role="line"
         id="tspan35">DATA_NASCIMENTO</tspan></text>
    <path
       id="path36"
       d="m 455.20444,182.45 v -3.5"
       style="fill:#000000;fill-opacity:1;fill-rule:nonzero;stroke:#000000;stroke-width:0.8;stroke-linecap:butt;stroke-linejoin:round;stroke-miterlimit:10;stroke-dasharray:none;stroke-opacity:1"
       transform="matrix(1.3333333,0,0,-1.3333333,0,576)" />
    <text
       id="text36"
       xml:space="preserve"
       transform="matrix(0,-1.3333333,1.3333333,0,610.31426,523.2125)"><tspan
         style="font-variant:normal;font-weight:normal;font-size:10px;font-family:DejaVuSans;writing-mode:lr-tb;fill:#000000;fill-opacity:1;fill-rule:nonzero;stroke:none"
         x="0 2.95 10.478125 17.318125 25.018126 31.338125 36.338123 44.968124 52.838123 61.468124 67.788124 75.268127 81.378128 89.248123 94.248123 101.19813 107.51813 114.18625 121.16625 127.83437"
         y="0"
         sodipodi:role="line"
         id="tspan36">IDADE_MOMENTO_REACAO</tspan></text>
    <path
       id="path37"
       d="m 523.95167,182.45 v -3.5"
       style="fill:#000000;fill-opacity:1;fill-rule:nonzero;stroke:#000000;stroke-width:0.8;stroke-linecap:butt;stroke-linejoin:round;stroke-miterlimit:10;stroke-dasharray:none;stroke-opacity:1"
       transform="matrix(1.3333333,0,0,-1.3333333,0,576)" />
    <text
       id="text37"
       xml:space="preserve"
       transform="matrix(0,-1.3333333,1.3333333,0,702.27931,377.75417)"><tspan
         style="font-variant:normal;font-weight:normal;font-size:10px;font-family:DejaVuSans;writing-mode:lr-tb;fill:#000000;fill-opacity:1;fill-rule:nonzero;stroke:none"
         x="0 6.3499999 12.67 18.879375"
         y="0"
         sodipodi:role="line"
         id="tspan37">SEXO</tspan></text>
    <text
       id="text38"
       xml:space="preserve"
       transform="matrix(1.3333333,0,0,1.3333333,396.99875,558.73333)"><tspan
         style="font-variant:normal;font-weight:normal;font-size:10px;font-family:DejaVuSans;writing-mode:lr-tb;fill:#000000;fill-opacity:1;fill-rule:nonzero;stroke:none"
         x="0 6.98 13.1 15.88 22.219999 28.559999 34.689999"
         y="0"
         sodipodi:role="line"
         id="tspan38">Colunas</tspan></text>
    <path
       id="path38"
       d="m 70.22,182.45 h -3.5"
       style="fill:#000000;fill-opacity:1;fill-rule:nonzero;stroke:#000000;stroke-width:0.8;stroke-linecap:butt;stroke-linejoin:round;stroke-miterlimit:10;stroke-dasharray:none;stroke-opacity:1"
       transform="matrix(1.3333333,0,0,-1.3333333,0,576)" />
    <text
       id="text39"
       xml:space="preserve"
       transform="matrix(1.3333333,0,0,1.3333333,75.814167,337.79583)"><tspan
         style="font-variant:normal;font-weight:normal;font-size:10px;font-family:DejaVuSans;writing-mode:lr-tb;fill:#000000;fill-opacity:1;fill-rule:nonzero;stroke:none"
         x="0"
         y="0"
         id="tspan39">0</tspan></text>
    <path
       id="path39"
       d="m 70.22,229.32836 h -3.5"
       style="fill:#000000;fill-opacity:1;fill-rule:nonzero;stroke:#000000;stroke-width:0.8;stroke-linecap:butt;stroke-linejoin:round;stroke-miterlimit:10;stroke-dasharray:none;stroke-opacity:1"
       transform="matrix(1.3333333,0,0,-1.3333333,0,576)" />
    <text
       id="text40"
       xml:space="preserve"
       transform="matrix(1.3333333,0,0,1.3333333,41.8975,275.29136)"><tspan
         style="font-variant:normal;font-weight:normal;font-size:10px;font-family:DejaVuSans;writing-mode:lr-tb;fill:#000000;fill-opacity:1;fill-rule:nonzero;stroke:none"
         x="0 6.3600001 12.72 19.08 25.440001"
         y="0"
         sodipodi:role="line"
         id="tspan40">50000</tspan></text>
    <path
       id="path40"
       d="m 70.22,276.20671 h -3.5"
       style="fill:#000000;fill-opacity:1;fill-rule:nonzero;stroke:#000000;stroke-width:0.8;stroke-linecap:butt;stroke-linejoin:round;stroke-miterlimit:10;stroke-dasharray:none;stroke-opacity:1"
       transform="matrix(1.3333333,0,0,-1.3333333,0,576)" />
    <text
       id="text41"
       xml:space="preserve"
       transform="matrix(1.3333333,0,0,1.3333333,33.418333,212.78688)"><tspan
         style="font-variant:normal;font-weight:normal;font-size:10px;font-family:DejaVuSans;writing-mode:lr-tb;fill:#000000;fill-opacity:1;fill-rule:nonzero;stroke:none"
         x="0 6.3600001 12.72 19.08 25.440001 31.799999"
         y="0"
         sodipodi:role="line"
         id="tspan41">100000</tspan></text>
    <path
       id="path41"
       d="m 70.22,323.08507 h -3.5"
       style="fill:#000000;fill-opacity:1;fill-rule:nonzero;stroke:#000000;stroke-width:0.8;stroke-linecap:butt;stroke-linejoin:round;stroke-miterlimit:10;stroke-dasharray:none;stroke-opacity:1"
       transform="matrix(1.3333333,0,0,-1.3333333,0,576)" />
    <text
       id="text42"
       xml:space="preserve"
       transform="matrix(1.3333333,0,0,1.3333333,33.418333,150.28241)"><tspan
         style="font-variant:normal;font-weight:normal;font-size:10px;font-family:DejaVuSans;writing-mode:lr-tb;fill:#000000;fill-opacity:1;fill-rule:nonzero;stroke:none"
         x="0 6.3600001 12.72 19.08 25.440001 31.799999"
         y="0"
         sodipodi:role="line"
         id="tspan42">150000</tspan></text>
    <path
       id="path42"
       d="m 70.22,369.96343 h -3.5"
       style="fill:#000000;fill-opacity:1;fill-rule:nonzero;stroke:#000000;stroke-width:0.8;stroke-linecap:butt;stroke-linejoin:round;stroke-miterlimit:10;stroke-dasharray:none;stroke-opacity:1"
       transform="matrix(1.3333333,0,0,-1.3333333,0,576)" />
    <text
       id="text43"
       xml:space="preserve"
       transform="matrix(1.3333333,0,0,1.3333333,33.418333,87.777931)"><tspan
         style="font-variant:normal;font-weight:normal;font-size:10px;font-family:DejaVuSans;writing-mode:lr-tb;fill:#000000;fill-opacity:1;fill-rule:nonzero;stroke:none"
         x="0 6.3600001 12.72 19.08 25.440001 31.799999"
         y="0"
         sodipodi:role="line"
         id="tspan43">200000</tspan></text>
    <text
       id="text44"
       xml:space="preserve"
       transform="rotate(-90)"
       x="-243.98293"
       y="21.314167"
       style="font-size:16px;stroke-width:1.33333"><tspan
         style="font-variant:normal;font-weight:normal;font-size:13.3333px;font-family:DejaVuSans;writing-mode:lr-tb;fill:#000000;fill-opacity:1;fill-rule:nonzero;stroke:none;stroke-width:1.33333"
         x="-243.98293 -234.00958 -225.55626 -212.5696 -204.36958 -199.18126 -191.02126 -186.78125 -178.31459 -170.11459 -165.87459 -158.44792 -154.74126 -146.28792 -137.83458 -129.66125"
         y="21.314167"
         sodipodi:role="line"
         id="tspan44">Número de Linhas</tspan></text>
    <path
       id="path44"
       d="M 70.22,182.45 V 406.56"
       style="fill:none;stroke:#000000;stroke-width:0.8;stroke-linecap:square;stroke-linejoin:miter;stroke-miterlimit:10;stroke-dasharray:none;stroke-opacity:1"
       transform="matrix(1.3333333,0,0,-1.3333333,0,576)" />
    <path
       id="path46"
       d="M 70.22,182.45 H 565.2"
       style="fill:none;stroke:#000000;stroke-width:0.8;stroke-linecap:square;stroke-linejoin:miter;stroke-miterlimit:10;stroke-dasharray:none;stroke-opacity:1"
       transform="matrix(1.3333333,0,0,-1.3333333,0,576)" />
    <text
       id="text47"
       xml:space="preserve"
       x="250.35292"
       y="21.92"
       style="font-size:16px;stroke-width:1.33333"><tspan
         style="font-variant:normal;font-weight:normal;font-size:16px;font-family:DejaVuSans;writing-mode:lr-tb;fill:#000000;fill-opacity:1;fill-rule:nonzero;stroke:none;stroke-width:1.33333"
         x="250.35292 260.06775 269.87576 274.32376 284.11575 290.35843 300.19843 308.53442 313.62241 324.56641 334.71042 343.04642 352.88641 363.03043 369.30243 379.14243 387.47839 392.56644 402.4064 407.49442 416.87158 423.11426 432.95425 442.79425 452.93823 461.73825 471.88226 476.33026 486.49023 496.28226 504.61826 509.70624 519.86621 529.65826 536.23425 541.32227 552.49023 562.28223 566.73022 576.87427 587.01825"
         y="21.92"
         sodipodi:role="line"
         id="tspan47">Valores Ausentes e Preenchidos por Coluna</tspan></text>
    <path
       id="path48"
       d="m 687.47425,48.712714 h 139.77818 c 2.68884,0 4.03328,-0.89769 4.03328,-2.693057 V 7.8539914 c 0,-1.795367 -1.34444,-2.693057 -4.03328,-2.693057 H 687.47425 c -2.68885,0 -4.03328,0.89769 -4.03328,2.693057 V 46.019657 c 0,1.795367 1.34443,2.693057 4.03328,2.693057 z"
       style="fill:#ffffff;fill-opacity:0.8;fill-rule:nonzero;stroke:#cccccc;stroke-width:1.64787;stroke-linecap:butt;stroke-linejoin:miter;stroke-miterlimit:10;stroke-dasharray:none;stroke-opacity:0.8" />
    <path
       id="path49"
       d="M 688.61704,20.462001 H 715.2837 V 11.128668 H 688.61704 Z"
       style="fill:#1f77b4;fill-opacity:1;fill-rule:nonzero;stroke:none;stroke-width:1.33333" />
    <text
       id="text49"
       xml:space="preserve"
       style="font-style:normal;font-variant:normal;font-weight:normal;font-stretch:normal;font-size:16px;font-family:sans-serif;-inkscape-font-specification:'sans-serif, Normal';font-variant-ligatures:normal;font-variant-caps:normal;font-variant-numeric:normal;font-variant-east-asian:normal;stroke-width:1.33333"
       x="725.95038"
       y="20.461988"><tspan
         sodipodi:role="line"
         id="tspan51"
         x="725.95038"
         y="20.461988"
         style="stroke-width:1.33333">Ausentes</tspan></text>
    <path
       id="path50"
       d="M 688.61704,40.024508 H 715.2837 V 30.691174 H 688.61704 Z"
       style="fill:#ff7f0e;fill-opacity:1;fill-rule:nonzero;stroke:none;stroke-width:1.33333" />
    <text
       id="text50"
       xml:space="preserve"
       style="font-style:normal;font-variant:normal;font-weight:normal;font-stretch:normal;font-size:16px;font-family:sans-serif;-inkscape-font-specification:'sans-serif, Normal';font-variant-ligatures:normal;font-variant-caps:normal;font-variant-numeric:normal;font-variant-east-asian:normal;stroke-width:1.33333"
       x="725.95038"
       y="40.024487"><tspan
         sodipodi:role="line"
         id="tspan52"
         x="725.95038"
         y="40.024487"
         style="stroke-width:1.33333">Preenchidos</tspan></text>
  </g>
</svg>
